<svg id="Capa_1" data-name="Capa 1" xmlns="http://www.w3.org/2000/svg" viewBox="0 0 192.5 191.97"><defs><style>.cls-1{fill:#aae160;}.cls-2{fill:#fff;}.cls-3{fill:none;stroke:#d4d4d4;stroke-miterlimit:10;}</style></defs><title>Ubucacion</title><path class="cls-1" d="M95.84,153.29S43.11,91.89,51.45,61.64c7.83-28.4,33.61-34.31,47.71-32.9s35,9.87,40.65,31.72S130.12,111,95.84,153.29Z"/><path class="cls-2" d="M66.26,68.69H79.54L85.93,81,81.7,78.12S73,89.53,74.29,95.46l-9-14.26s-1.83-2.4,4.22-9.35Z"/><path class="cls-2" d="M79.65,101.39a10.68,10.68,0,0,1-4.18-9.12A8.51,8.51,0,0,1,78.74,86H94.82v15.4Z"/><path class="cls-2" d="M117.45,53.63,111,65.21l-13.84-.43,4.55-2.29S96,49.35,90.16,47.55l16.85-.9s3-.42,6.1,8.26Z"/><path class="cls-2" d="M82.37,49.32a10.67,10.67,0,0,1,10,.82,8.46,8.46,0,0,1,3.88,5.92l-7.86,14L75,62.56Z"/><path class="cls-2" d="M106.49,105.56,99.16,94.48l6.72-12.11,0,5.1s14.3.93,18.56-3.39l-6.92,15.38s-1,2.85-10.13,1.65Z"/><path class="cls-2" d="M126.37,76.33a10.66,10.66,0,0,1-5.3,8.53,8.49,8.49,0,0,1-7,.74l-8.88-13.42L118,63.68Z"/><ellipse class="cls-3" cx="96.25" cy="153.05" rx="12.25" ry="2.18"/><ellipse class="cls-3" cx="96.25" cy="153.05" rx="32" ry="5.71"/><ellipse class="cls-3" cx="96.25" cy="153.05" rx="58.2" ry="10.38"/></svg>