<svg id="Capa_1" data-name="Capa 1" xmlns="http://www.w3.org/2000/svg" viewBox="0 0 192.5 191.97"><defs><style>.cls-1{fill:#a8ec5d;}.cls-2{fill:#69be7b;}</style></defs><title>Casita con hojas</title><path class="cls-1" d="M116.61,72.28a2,2,0,0,1,.08-.21c1.09-2.83,13.71-33.29,48.68-30.41a33.7,33.7,0,0,1,18.14,9.45s-15.26,36.23-65.3,30.52c0,0,21.1-20.25,39.14-21.79C157.35,59.84,148,52.56,116.61,72.28Z"/><polygon class="cls-1" points="44.28 156.21 76.41 156.21 76.41 125.97 97.72 125.97 98.63 156.21 130.76 156.21 130.46 107.83 89.26 69.28 44.28 106.7 44.28 156.21"/><polygon class="cls-2" points="33.83 108.19 26.65 105.54 87.88 51.11 147.74 105.5 141.18 108.19 87.19 61.85 33.83 108.19"/><path class="cls-2" d="M92.49,60.68S77.05,28.07,98.71,9c0,0,18.53,15.66,27.41,38.63,0,0-7.54,7.8-9.51,13,0,0-8-6-12.68-25.83,0,0-6.78,9.4,9.66,30l-3.66,9.92Z"/></svg>